<?xml version="1.0" standalone="no"?>
<!DOCTYPE svg PUBLIC "-//W3C//DTD SVG 20010904//EN"
 "http://www.w3.org/TR/2001/REC-SVG-20010904/DTD/svg10.dtd">
<svg version="1.0" xmlns="http://www.w3.org/2000/svg"
 width="560.000000pt" height="560.000000pt" viewBox="0 0 560.000000 560.000000"
 preserveAspectRatio="xMidYMid meet">
<metadata>
Created by potrace 1.14, written by Peter Selinger 2001-2017
</metadata>
<g transform="translate(0.000000,560.000000) scale(0.100000,-0.100000)"
fill="#000000" stroke="none">
<path d="M725 5122 c-2 -2 -27 -5 -57 -7 -162 -9 -346 -149 -394 -300 -35
-108 -34 -44 -32 -2280 l3 -2160 24 -60 c45 -113 123 -202 222 -255 118 -63
-40 -59 2314 -59 l2150 0 74 25 c73 25 133 60 181 107 38 36 81 87 74 87 -3 0
4 13 16 30 12 16 23 38 25 47 2 10 11 41 19 68 14 45 16 277 13 2215 -2 2087
-3 2167 -21 2215 -65 175 -215 296 -396 321 -25 3 -49 6 -55 5 -22 -1 -201 -2
-210 -1 -12 2 -82 2 -195 0 -47 -1 -89 -1 -95 0 -5 1 -14 2 -20 0 -8 -1 -91
-1 -130 1 -5 0 -44 0 -85 -1 -41 -1 -79 -1 -85 0 -5 1 -14 2 -20 0 -9 -1 -102
-1 -130 1 -5 1 -50 1 -100 0 -49 -1 -117 -1 -150 0 -33 0 -96 -1 -140 -1 -44
-1 -84 -1 -90 0 -5 1 -14 1 -20 0 -20 -4 -137 0 -145 5 -5 3 -11 1 -15 -5 -4
-6 -11 -8 -16 -5 -5 3 -55 5 -111 5 -112 -1 -110 -1 -153 0 -16 0 -72 -1 -123
-2 -50 -2 -92 -1 -92 2 0 3 -28 4 -62 3 -104 -4 -222 -5 -233 -3 -5 1 -14 2
-20 0 -8 -1 -91 -1 -130 1 -5 0 -44 0 -85 -1 -41 -1 -79 -1 -85 0 -5 1 -14 2
-20 0 -9 -1 -102 -1 -130 1 -5 1 -50 1 -100 0 -49 -1 -117 -1 -150 0 -33 0
-96 -1 -140 -1 -44 -1 -84 -1 -90 0 -5 1 -14 1 -20 0 -20 -4 -137 0 -145 5 -5
3 -11 1 -15 -5 -4 -6 -11 -8 -16 -5 -5 3 -55 5 -111 5 -112 -1 -110 -1 -153 0
-16 0 -72 -1 -123 -2 -50 -2 -92 -1 -92 2 0 6 -110 7 -115 2z"/>
</g>
</svg>
