<svg width="20" height="20" viewBox="0 0 20 20" fill="none" xmlns="http://www.w3.org/2000/svg">
<path d="M7.38494 18.7389C8.13291 18.7389 8.73925 18.1326 8.73925 17.3846C8.73925 16.6367 8.13291 16.0303 7.38494 16.0303C6.63697 16.0303 6.03063 16.6367 6.03063 17.3846C6.03063 18.1326 6.63697 18.7389 7.38494 18.7389Z" stroke="black" stroke-width="1.27273" stroke-linecap="round" stroke-linejoin="round"/>
<path d="M15.2814 18.7376C16.0286 18.7376 16.6344 18.1318 16.6344 17.3846C16.6344 16.6374 16.0286 16.0317 15.2814 16.0317C14.5342 16.0317 13.9285 16.6374 13.9285 17.3846C13.9285 18.1318 14.5342 18.7376 15.2814 18.7376Z" stroke="black" stroke-width="1.27" stroke-linecap="round" stroke-linejoin="round"/>
<path d="M0.833008 0.833313H4.16634L6.39967 11.9916C6.47588 12.3753 6.6846 12.7199 6.9893 12.9652C7.29399 13.2105 7.67526 13.3408 8.06634 13.3333H16.1663C16.5574 13.3408 16.9387 13.2105 17.2434 12.9652C17.5481 12.7199 17.7568 12.3753 17.833 11.9916L19.1663 4.99998H4.99967" stroke="black" stroke-width="1.27273" stroke-linecap="round" stroke-linejoin="round"/>
</svg>
